<svg width="25" height="24" viewBox="0 0 25 24" fill="none" xmlns="http://www.w3.org/2000/svg">
<path d="M19 19.5H15M17 21.5V17.5M12.49 21.81C10.67 21.81 8.85998 21.35 7.47998 20.43C5.05998 18.81 5.05998 16.17 7.47998 14.56C10.23 12.72 14.74 12.72 17.49 14.56M12.66 10.87C12.56 10.86 12.44 10.86 12.33 10.87C11.1822 10.831 10.0946 10.3468 9.29761 9.51996C8.50059 8.69308 8.05672 7.58845 8.05998 6.44C8.0584 5.85733 8.17183 5.28008 8.39378 4.74133C8.61573 4.20258 8.94182 3.71294 9.35336 3.30046C9.76491 2.88799 10.2538 2.56079 10.7921 2.33763C11.3303 2.11447 11.9073 1.99974 12.49 2C14.94 2 16.93 3.99 16.93 6.44C16.93 8.84 15.03 10.79 12.66 10.87V10.87Z" stroke="black" stroke-width="1.5" stroke-linecap="round" stroke-linejoin="round"/>
</svg>
