<svg width="25" height="24" viewBox="0 0 25 24" fill="none" xmlns="http://www.w3.org/2000/svg">
<path d="M17.47 14.44C18.84 14.67 20.35 14.43 21.41 13.72C22.82 12.78 22.82 11.24 21.41 10.3C20.34 9.59 18.81 9.35 17.44 9.59M7.5 14.44C6.13 14.67 4.62 14.43 3.56 13.72C2.15 12.78 2.15 11.24 3.56 10.3C4.63 9.59 6.16 9.35 7.53 9.59M18.5 7.16C18.4371 7.14999 18.3729 7.14999 18.31 7.16C17.6426 7.13587 17.0108 6.85321 16.548 6.37176C16.0852 5.89032 15.8277 5.2478 15.83 4.58C15.83 3.15 16.98 2 18.41 2C19.0943 2 19.7505 2.27182 20.2343 2.75566C20.7182 3.23951 20.99 3.89574 20.99 4.58C20.9882 5.24827 20.728 5.88996 20.2639 6.37081C19.7998 6.85167 19.1678 7.13445 18.5 7.16V7.16ZM6.47 7.16C6.53 7.15 6.6 7.15 6.66 7.16C7.32737 7.13587 7.95921 6.85321 8.422 6.37176C8.88478 5.89032 9.14226 5.2478 9.14 4.58C9.14 3.15 7.99 2 6.56 2C5.87574 2 5.21951 2.27182 4.73567 2.75566C4.25182 3.23951 3.98 3.89574 3.98 4.58C3.99 5.98 5.09 7.11 6.47 7.16ZM12.5 14.63C12.4371 14.62 12.3729 14.62 12.31 14.63C11.6426 14.6059 11.0108 14.3232 10.548 13.8418C10.0852 13.3603 9.82775 12.7178 9.83 12.05C9.83 10.62 10.98 9.47 12.41 9.47C13.0943 9.47 13.7505 9.74182 14.2343 10.2257C14.7182 10.7095 14.99 11.3657 14.99 12.05C14.98 13.45 13.88 14.59 12.5 14.63ZM9.59 17.78C8.18 18.72 8.18 20.26 9.59 21.2C11.19 22.27 13.81 22.27 15.41 21.2C16.82 20.26 16.82 18.72 15.41 17.78C13.82 16.72 11.19 16.72 9.59 17.78Z" stroke="black" stroke-width="1.5" stroke-linecap="round" stroke-linejoin="round"/>
</svg>
