<svg width="25" height="24" viewBox="0 0 25 24" fill="none" xmlns="http://www.w3.org/2000/svg">
<path d="M18.51 8.98994L15.51 5.98994M4 20.4999C4.83 21.3299 6.17 21.3299 7 20.4999L20 7.49994C20.83 6.66994 20.83 5.32994 20 4.49994C19.17 3.66994 17.83 3.66994 17 4.49994L4 17.4999C3.17 18.3299 3.17 19.6699 4 20.4999Z" stroke="black" stroke-width="1.5" stroke-linecap="round" stroke-linejoin="round"/>
<path d="M9 2.44L10.5 2L10.06 3.5L10.5 5L9 4.56L7.5 5L7.94 3.5L7.5 2L9 2.44ZM5 8.44L6.5 8L6.06 9.5L6.5 11L5 10.56L3.5 11L3.94 9.5L3.5 8L5 8.44ZM20 13.44L21.5 13L21.06 14.5L21.5 16L20 15.56L18.5 16L18.94 14.5L18.5 13L20 13.44Z" stroke="black" stroke-linecap="round" stroke-linejoin="round"/>
</svg>
