<svg width="25" height="24" viewBox="0 0 25 24" fill="none" xmlns="http://www.w3.org/2000/svg">
<path d="M20.04 6.54002L16.97 3.47002C16.505 3.00574 15.953 2.63778 15.3455 2.38725C14.738 2.13671 14.0871 2.00852 13.43 2.01002H8.5C5.5 2.01002 3.5 4.01002 3.5 7.01002V17.01C3.5 20.01 5.5 22.01 8.5 22.01H16.5C19.5 22.01 21.5 20.01 21.5 17.01V10.08C21.5012 9.42297 21.3728 8.77214 21.1223 8.16472C20.8718 7.5573 20.504 7.00521 20.04 6.54002V6.54002Z" stroke="black" stroke-width="1.5" stroke-linecap="round" stroke-linejoin="round"/>
<path d="M10 14L8 16L10 18M15 14L17 16L15 18" stroke="black" stroke-width="1.5" stroke-linecap="round" stroke-linejoin="round"/>
</svg>
