<svg width="46" height="44" viewBox="0 0 46 44" fill="none" xmlns="http://www.w3.org/2000/svg">
<path d="M42.1671 0L38.6326 39.5954L22.7448 44L6.90082 39.6016L3.37006 0H42.1671Z" fill="#264DE4"/>
<path d="M22.7686 40.6333L35.6066 37.0741L38.6271 3.23804H22.7686V40.6333Z" fill="#2965F1"/>
<path d="M22.7685 17.9257H11.4642L11.8995 22.7826H22.7685V17.9257Z" fill="#EBEBEB"/>
<path d="M22.7685 8.09509H22.7517H10.5895L11.0311 12.9521H22.7685V8.09509Z" fill="#EBEBEB"/>
<path d="M12.1166 25.2112L12.797 32.8373L22.7462 35.5993L22.7685 35.5931V30.5398L22.7473 30.5455L17.338 29.0848L16.9922 25.2112H14.3637H12.1166Z" fill="#EBEBEB"/>
<path d="M28.7326 22.7827L28.1688 29.0818L22.7518 30.5439V35.597L32.7088 32.8374L32.7819 32.0168L33.9232 19.23L34.0417 17.9257L34.9186 8.09509H22.7518V12.9521H29.5957L29.1538 17.9257H22.7518V22.7827H28.7326Z" fill="white"/>
</svg>
