<svg width="30" height="44" viewBox="0 0 30 44" fill="none" xmlns="http://www.w3.org/2000/svg">
<g clip-path="url(#clip0_295_410)">
<path d="M7.4167 44.0001C11.5052 44.0001 14.8234 40.7147 14.8234 36.6667V29.3334H7.4167C3.32821 29.3334 0.0100098 32.6187 0.0100098 36.6667C0.0100098 40.7147 3.32821 44.0001 7.4167 44.0001Z" fill="#0ACF83"/>
<path d="M0.0100098 22.0001C0.0100098 17.9521 3.32821 14.6667 7.4167 14.6667H14.8234V29.3334H7.4167C3.32821 29.3334 0.0100098 26.0481 0.0100098 22.0001Z" fill="#A259FF"/>
<path d="M0.0101318 7.33334C0.0101318 3.28534 3.32833 0 7.41682 0H14.8235V14.6667H7.41682C3.32833 14.6667 0.0101318 11.3813 0.0101318 7.33334Z" fill="#F24E1E"/>
<path d="M14.8234 0H22.2301C26.3185 0 29.6367 3.28534 29.6367 7.33334C29.6367 11.3813 26.3185 14.6667 22.2301 14.6667H14.8234V0Z" fill="#FF7262"/>
<path d="M29.6367 22.0001C29.6367 26.0481 26.3185 29.3334 22.2301 29.3334C18.1416 29.3334 14.8234 26.0481 14.8234 22.0001C14.8234 17.9521 18.1416 14.6667 22.2301 14.6667C26.3185 14.6667 29.6367 17.9521 29.6367 22.0001Z" fill="#1ABCFE"/>
</g>
<defs>
<clipPath id="clip0_295_410">
<rect width="29.6268" height="44" fill="white" transform="translate(0.0100098)"/>
</clipPath>
</defs>
</svg>
