<svg width="46" height="44" viewBox="0 0 46 44" fill="none" xmlns="http://www.w3.org/2000/svg">
<g clip-path="url(#clip0_291_380)">
<path fill-rule="evenodd" clip-rule="evenodd" d="M22.9982 0C10.5439 0 0.443542 10.099 0.443542 22.5575C0.443542 32.5221 6.90615 40.9773 15.8696 43.9614C16.9981 44.1679 17.4094 43.4712 17.4094 42.873C17.4094 42.3371 17.3898 40.9191 17.378 39.0372C11.1037 40.3998 9.77994 36.013 9.77994 36.013C8.75384 33.4069 7.27493 32.7132 7.27493 32.7132C5.22689 31.3146 7.42997 31.3422 7.42997 31.3422C9.69402 31.5016 10.8849 33.6672 10.8849 33.6672C12.8969 37.1138 16.1649 36.1183 17.45 35.5408C17.6549 34.0841 18.2379 33.0898 18.8818 32.5262C13.8732 31.9557 8.607 30.0212 8.607 21.3777C8.607 18.9142 9.48633 16.9022 10.9292 15.325C10.6964 14.7544 9.92251 12.4613 11.151 9.35529C11.151 9.35529 13.0439 8.74882 17.3532 11.6665C19.152 11.1666 21.0823 10.9173 23.0002 10.9076C24.9167 10.9155 26.8456 11.1667 28.6472 11.6665C32.9537 8.74882 34.8439 9.35529 34.8439 9.35529C36.0749 12.4613 35.3008 14.7544 35.0696 15.325C36.5152 16.9022 37.3876 18.9142 37.3876 21.3777C37.3876 30.0434 32.1131 31.9501 27.0893 32.5081C27.898 33.2047 28.6194 34.5812 28.6194 36.686C28.6194 39.7006 28.592 42.1335 28.592 42.873C28.592 43.4767 28.9991 44.1788 30.1429 43.9586C39.0994 40.969 45.5564 32.5207 45.5564 22.5575C45.5564 10.099 35.4561 0 22.9976 0" fill="#1B1817"/>
</g>
<defs>
<clipPath id="clip0_291_380">
<rect width="45.1129" height="44" fill="white" transform="translate(0.443542)"/>
</clipPath>
</defs>
</svg>
