<svg width="44" height="44" viewBox="0 0 44 44" fill="none" xmlns="http://www.w3.org/2000/svg">
<path d="M6.10295 39.6026L2.57184 0H41.37L37.8362 39.5971L21.9462 44L6.10295 39.6026Z" fill="#E44D26"/>
<path d="M34.8097 37.0753L37.8307 3.23822H21.9709V40.6353L34.8097 37.0753Z" fill="#F16529"/>
<path d="M21.9545 8.09485H9.79083L11.1012 22.7831H21.971V17.9264H15.544L15.0999 12.9529H21.971V8.09485H21.9545ZM21.971 30.5245L21.9503 30.53L16.5409 29.0698L16.1972 25.1963H11.3185L11.9992 32.8222L21.949 35.5723L21.971 35.5655V30.5245Z" fill="#EBEBEB"/>
<path d="M21.9545 22.7831H27.9359L27.3859 29.0808L21.9682 30.5424V35.5957L31.9263 32.836L33.2601 17.9237H21.971L21.9545 22.7831ZM34.0053 9.39839L34.1209 8.09485H21.9517V12.9515H33.6836L33.7798 11.8597L34.0053 9.39839Z" fill="white"/>
</svg>
