<svg width="46" height="45" viewBox="0 0 46 45" fill="none" xmlns="http://www.w3.org/2000/svg">
<g clip-path="url(#clip0_291_375)">
<path d="M1.06187 15.3625C1.06187 15.3625 -0.0263635 14.5807 1.27952 13.5367L4.32204 10.8252C4.32204 10.8252 5.19263 9.91236 6.1131 10.7077L34.1896 31.8937V42.0528C34.1896 42.0528 34.176 43.6481 32.1219 43.4718L1.06187 15.3625Z" fill="#2489CA"/>
<path d="M8.29865 21.9108L1.06189 28.4681C1.06189 28.4681 0.318258 29.0194 1.06189 30.0046L4.42181 33.0506C4.42181 33.0506 5.21985 33.9047 6.39877 32.9331L14.0708 27.1349L8.29865 21.9108Z" fill="#1070B3"/>
<path d="M21.0038 21.9651L34.2757 11.8647L34.1896 1.75979C34.1896 1.75979 33.6228 -0.445571 31.732 0.702301L14.0708 16.7228L21.0038 21.9651Z" fill="#0877B9"/>
<path d="M32.1219 43.4853C32.8927 44.2717 33.8268 44.0141 33.8268 44.0141L44.1696 38.9345C45.4936 38.0352 45.3077 36.9189 45.3077 36.9189V6.58619C45.3077 5.25303 43.9383 4.79207 43.9383 4.79207L34.974 0.485289C33.0151 -0.721333 31.7319 0.70221 31.7319 0.70221C31.7319 0.70221 33.3824 -0.481816 34.1895 1.7597V41.8675C34.1895 42.1431 34.1306 42.4143 34.0127 42.6583C33.7769 43.1328 33.2645 43.5757 32.0357 43.3904L32.1219 43.4853Z" fill="#3C99D4"/>
</g>
<defs>
<clipPath id="clip0_291_375">
<rect width="44.6799" height="44.0544" fill="white" transform="translate(0.63678)"/>
</clipPath>
</defs>
</svg>
