<svg width="45" height="44" viewBox="0 0 45 44" fill="none" xmlns="http://www.w3.org/2000/svg">
<g clip-path="url(#clip0_291_383)">
<path d="M13.7551 13.5792H11.3252L17.9496 32.3047L21.6581 21.707L18.7829 13.5792H16.2192V11.7949H27.572V13.5792H24.9135L31.5377 32.3047L33.9189 25.5C37.0425 16.7818 31.3587 14.0661 31.3587 12.1204C31.3587 10.1748 32.936 8.59756 34.8816 8.59756C34.9869 8.59756 35.0891 8.60326 35.1892 8.6126C31.8926 5.50058 27.4475 3.59216 22.5562 3.59216C16.1649 3.59216 10.5352 6.84994 7.23499 11.7949H13.7549V13.5792H13.7551Z" fill="#00769D"/>
<path d="M4.14856 22C4.14856 29.0474 8.10967 35.1689 13.9263 38.2621L5.61921 14.7798C4.67291 16.9967 4.14856 19.4371 4.14856 22Z" fill="#00769D"/>
<path d="M38.5766 12.9291C38.8399 14.4795 38.7602 16.222 38.3562 17.9713H38.4294L38.151 18.7666C37.9861 19.3409 37.7784 19.9284 37.5425 20.5056L31.2086 38.2502C37.0131 35.1532 40.9641 29.0384 40.9641 21.9998C40.9641 18.7017 40.0958 15.6065 38.5766 12.9291Z" fill="#00769D"/>
<path d="M16.8792 39.5142C18.6675 40.0935 20.5751 40.4077 22.5564 40.4077C24.4462 40.4077 26.2693 40.1225 27.9856 39.5934L22.6011 24.3727L16.8792 39.5142Z" fill="#00769D"/>
<path d="M38.1127 6.44362C33.9575 2.28839 28.4327 0 22.5563 0C16.6799 0 11.1552 2.28839 7.00001 6.44362C2.84478 10.5988 0.556396 16.1235 0.556396 22C0.556396 27.8764 2.84478 33.4011 7.00001 37.5563C11.1552 41.7115 16.68 43.9999 22.5564 43.9999C28.4328 43.9999 33.9575 41.7115 38.1128 37.5563C42.268 33.4011 44.5564 27.8763 44.5564 22C44.5563 16.1235 42.2679 10.5988 38.1127 6.44362ZM22.5563 42.448C11.2812 42.448 2.10833 33.2751 2.10833 22C2.10833 10.7249 11.2812 1.55193 22.5563 1.55193C33.8313 1.55193 43.0043 10.7249 43.0043 22C43.0043 33.2751 33.8314 42.448 22.5563 42.448Z" fill="#00769D"/>
</g>
<defs>
<clipPath id="clip0_291_383">
<rect width="44" height="44" fill="white" transform="translate(0.556396)"/>
</clipPath>
</defs>
</svg>
